@startuml
hide empty members
hide circle
left to right direction
class "<:file_folder:> Classification" as Classification {
<#transparent,#transparent>|<:calendar:>|activationDateUtc| dateTime| 1..1|
|<:book:>|classificationType| ClassificationType| 0..1|
|<:spiral_notepad:>|code| string| 1..1|
|<:spiral_notepad:>|countryOfOrigin| string| 0..1|
|<:spiral_notepad:>|countryOfUse| string| 0..*|
|<:spiral_notepad:>|creatorLanguageCode| string| 0..1|
|<:calendar:>|deActivationDateUtc| dateTime| 0..1|
|<:spiral_notepad:>|definition| string| 0..1|
|<:spiral_notepad:>|deprecationExplanation| string| 0..1|
|<:spiral_notepad:>|documentReference| string| 0..1|
|<:spiral_notepad:>|name| string| 1..1|
|<:spiral_notepad:>|referenceCode| string| 0..1|
|<:spiral_notepad:>|relatedIfcEntityName| string| 0..*|
|<:spiral_notepad:>|replacedObjectCode| string| 0..*|
|<:spiral_notepad:>|replacingObjectCode| string| 0..*|
|<:calendar:>|revisionDateUtc| dateTime| 0..1|
|<:1234:>|revisionNumber| int| 0..1|
|<:spiral_notepad:>|status| string| 1..1|
|<:spiral_notepad:>|subdivisionOfUse| string| 0..*|
|<:spiral_notepad:>|synonym| string| 0..*|
|<:spiral_notepad:>|uid| string| 0..1|
|<:calendar:>|versionDateUtc| dateTime| 0..1|
|<:1234:>|versionNumber| int| 0..1|
|<:link:>|visualRepresentationUri| iri| 0..1|
}

class "<:hammer_and_wrench:> ClassificationProperty" as ClassificationProperty {
<#transparent,#transparent>|<:calendar:>|activationDateUtc| dateTime| 1..1|
|<:spiral_notepad:>|code| string| 1..1|
|<:spiral_notepad:>|countryOfOrigin| string| 0..1|
|<:spiral_notepad:>|countryOfUse| string| 0..*|
|<:spiral_notepad:>|creatorLanguageCode| string| 0..1|
|<:spiral_notepad:>|dataType| string| 0..1|
|<:calendar:>|deActivationDateUtc| dateTime| 0..1|
|<:spiral_notepad:>|definition| string| 0..1|
|<:spiral_notepad:>|deprecationExplanation| string| 0..1|
|<:spiral_notepad:>|description| string| 0..1|
|<:spiral_notepad:>|dimension| string| 0..1|
|<:1234:>|dimensionAmountOfSubstance| int| 0..1|
|<:1234:>|dimensionElectricCurrent| int| 0..1|
|<:1234:>|dimensionLength| int| 0..1|
|<:1234:>|dimensionLuminousIntensity| int| 0..1|
|<:1234:>|dimensionMass| int| 0..1|
|<:1234:>|dimensionThermodynamicTemperature| int| 0..1|
|<:1234:>|dimensionTime| int| 0..1|
|<:spiral_notepad:>|documentReference| string| 0..1|
|<:spiral_notepad:>|dynamicParameterPropertyCode| string| 0..*|
|<:spiral_notepad:>|example| string| 0..1|
|<:ballot_box_with_check:>|isDynamic| boolean| 1..1|
|<:ballot_box_with_check:>|isRequired| boolean| 0..1|
|<:ballot_box_with_check:>|isWritable| boolean| 0..1|
|<:eight_spoked_asterisk:>|maxExclusive| decimal| 0..1|
|<:eight_spoked_asterisk:>|maxInclusive| decimal| 0..1|
|<:spiral_notepad:>|methodOfMeasurement| string| 0..1|
|<:eight_spoked_asterisk:>|minExclusive| decimal| 0..1|
|<:eight_spoked_asterisk:>|minInclusive| decimal| 0..1|
|<:spiral_notepad:>|name| string| 1..1|
|<:spiral_notepad:>|pattern| string| 0..1|
|<:spiral_notepad:>|physicalQuantity| string| 0..1|
|<:spiral_notepad:>|predefinedValue| string| 0..1|
|<:spiral_notepad:>|propertySet| string| 0..1|
|<:book:>|propertyValueKind| PropertyValueKind| 0..1|
|<:spiral_notepad:>|replacedObjectCode| string| 0..*|
|<:spiral_notepad:>|replacingObjectCode| string| 0..*|
|<:calendar:>|revisionDateUtc| dateTime| 0..1|
|<:1234:>|revisionNumber| int| 0..1|
|<:spiral_notepad:>|status| string| 1..1|
|<:spiral_notepad:>|subdivisionOfUse| string| 0..*|
|<:spiral_notepad:>|symbol| string| 0..1|
|<:spiral_notepad:>|textFormat| string| 1..1|
|<:spiral_notepad:>|uid| string| 0..1|
|<:spiral_notepad:>|unit| string| 0..*|
|<:calendar:>|versionDateUtc| dateTime| 0..1|
|<:1234:>|versionNumber| int| 0..1|
|<:link:>|visualRepresentationUri| iri| 0..1|
}

class "<:link:> ClassificationRelation" as ClassificationRelation {
<#transparent,#transparent>|<:spiral_notepad:>|relationType| string| 1..1|
}

class "<:earth_americas:> Country" as Country {
<#transparent,#transparent>|<:spiral_notepad:>|code| string| 1..1|
|<:spiral_notepad:>|name| string| 1..1|
}

class "<:label:> Domain" as Domain {
<#transparent,#transparent>|<:spiral_notepad:>|copyrightNotice| string| 0..1|
|<:spiral_notepad:>|languageCode| string| 1..1|
|<:calendar:>|lastUpdatedUtc| dateTime| 1..1|
|<:spiral_notepad:>|license| string| 0..1|
|<:spiral_notepad:>|licenseUrl| string| 0..1|
|<:spiral_notepad:>|moreInfoUrl| string| 0..1|
|<:spiral_notepad:>|name| string| 1..1|
|<:calendar:>|releaseDate| dateTime| 0..1|
|<:spiral_notepad:>|status| string| 0..1|
|<:spiral_notepad:>|version| string| 1..1|
}

class "<:globe_with_meridians:> Language" as Language {
<#transparent,#transparent>|<:spiral_notepad:>|isocode| string| 1..1|
|<:spiral_notepad:>|name| string| 1..1|
}

class "<:wrench:> Property" as Property {
<#transparent,#transparent>|<:calendar:>|activationDateUtc| dateTime| 1..1|
|<:spiral_notepad:>|code| string| 1..1|
|<:spiral_notepad:>|connectedPropertyCode| string| 0..*|
|<:spiral_notepad:>|countryOfOrigin| string| 0..1|
|<:spiral_notepad:>|countryOfUse| string| 0..*|
|<:spiral_notepad:>|creatorLanguageCode| string| 0..1|
|<:spiral_notepad:>|dataType| string| 0..1|
|<:calendar:>|deActivationDateUtc| dateTime| 0..1|
|<:spiral_notepad:>|definition| string| 0..1|
|<:spiral_notepad:>|deprecationExplanation| string| 0..1|
|<:spiral_notepad:>|description| string| 0..1|
|<:spiral_notepad:>|dimension| string| 0..1|
|<:1234:>|dimensionAmountOfSubstance| int| 0..1|
|<:1234:>|dimensionElectricCurrent| int| 0..1|
|<:1234:>|dimensionLength| int| 0..1|
|<:1234:>|dimensionLuminousIntensity| int| 0..1|
|<:1234:>|dimensionMass| int| 0..1|
|<:1234:>|dimensionThermodynamicTemperature| int| 0..1|
|<:1234:>|dimensionTime| int| 0..1|
|<:spiral_notepad:>|documentReference| string| 0..1|
|<:spiral_notepad:>|dynamicParameterPropertyCodes| string| 0..*|
|<:spiral_notepad:>|example| string| 0..1|
|<:ballot_box_with_check:>|isDynamic| boolean| 1..1|
|<:eight_spoked_asterisk:>|maxExclusive| decimal| 0..1|
|<:eight_spoked_asterisk:>|maxInclusive| decimal| 0..1|
|<:spiral_notepad:>|methodOfMeasurement| string| 0..1|
|<:eight_spoked_asterisk:>|minExclusive| decimal| 0..1|
|<:eight_spoked_asterisk:>|minInclusive| decimal| 0..1|
|<:spiral_notepad:>|name| string| 1..1|
|<:spiral_notepad:>|pattern| string| 0..1|
|<:spiral_notepad:>|physicalQuantity| string| 0..1|
|<:book:>|propertyValueKind| PropertyValueKind| 0..1|
|<:spiral_notepad:>|replacedObjectCodes| string| 0..*|
|<:spiral_notepad:>|replacingObjectCodes| string| 0..*|
|<:calendar:>|revisionDateUtc| dateTime| 0..1|
|<:1234:>|revisionNumber| int| 0..1|
|<:spiral_notepad:>|status| string| 1..1|
|<:spiral_notepad:>|subdivisionsOfUse| string| 0..*|
|<:spiral_notepad:>|textFormat| string| 0..1|
|<:spiral_notepad:>|uid| string| 0..1|
|<:spiral_notepad:>|unit| string| 0..*|
|<:calendar:>|versionDateUtc| dateTime| 0..1|
|<:1234:>|versionNumber| int| 0..1|
|<:link:>|visualRepresentationUri| iri| 0..1|
}

class "<:link:> PropertyRelation" as PropertyRelation {
<#transparent,#transparent>|<:spiral_notepad:>|relationType| string| 1..1|
}

class "<:scroll:> PropertyValue" as PropertyValue {
<#transparent,#transparent>|<:spiral_notepad:>|bsdd:value| string| 1..1|
|<:spiral_notepad:>|code| string| 0..1|
|<:spiral_notepad:>|description| string| 0..1|
|<:1234:>|sortNumber| int| 0..1|
}

class "<:books:> ReferenceDocument" as ReferenceDocument {
<#transparent,#transparent>|<:calendar:>|date| dateTime| 1..1|
|<:spiral_notepad:>|name| string| 1..1|
|<:spiral_notepad:>|title| string| 1..1|
}

class "<:triangular_ruler:> Unit" as Unit {
<#transparent,#transparent>|<:spiral_notepad:>|code| string| 1..1|
|<:spiral_notepad:>|name| string| 1..1|
|<:spiral_notepad:>|symbol| string| 0..1|
}

Classification             "0..*" --  "1..1" Domain                     : domain\n classification
Classification             "0..*" --  "0..1" Classification             : parentClassification\n childClassification
ClassificationProperty     "0..*" --  "1..1" Classification             : classification\n classificationProperty
ClassificationRelation     "0..*" --  "2..2" Classification             : related\n relation
Property                   "1..1" --  "0..*" ClassificationProperty     : classificationProperty\n property
PropertyRelation           "0..*" --  "2..2" Property                   : related\n relation
ClassificationProperty            --> "0..*" PropertyValue              : allowedValue
Property                          --> "0..*" PropertyValue              : allowedValue
@enduml
